<svg xmlns="http://www.w3.org/2000/svg" width="261.353" height="77.842" viewBox="0 0 261.353 77.842"><defs><style>.a{fill:#ee2c7f;}.b{fill:#fff;}.c{fill:#778a91;}</style></defs><path class="a" d="M59.775,0H0V77.842H77.842V18.065A18.079,18.079,0,0,0,59.775,0Z"/><path class="b" d="M4.49,9.7H16.5a20.966,20.966,0,0,1,6.929,1.085A15.235,15.235,0,0,1,28.871,14a14.48,14.48,0,0,1,3.587,5.225,17.844,17.844,0,0,1,1.284,7,19.284,19.284,0,0,1-1.129,6.752,14.5,14.5,0,0,1-3.3,5.225,15.121,15.121,0,0,1-5.379,3.366,20.944,20.944,0,0,1-7.327,1.2H4.49ZM16.4,39.345a17.2,17.2,0,0,0,5.779-.908,11.867,11.867,0,0,0,4.229-2.612,11.069,11.069,0,0,0,2.612-4.118,15.5,15.5,0,0,0,.882-5.424,16.316,16.316,0,0,0-.841-5.314,11.313,11.313,0,0,0-2.5-4.207,11.579,11.579,0,0,0-4.229-2.744,16.671,16.671,0,0,0-5.934-.975H8.3v26.3Z" transform="translate(5.45 11.775)"/><path class="b" d="M18.813,26.152a13.062,13.062,0,0,1,1.016-5.093,13.283,13.283,0,0,1,12.42-7.949,13.61,13.61,0,0,1,5.314,1.016,13.283,13.283,0,0,1,4.266,2.789,12.885,12.885,0,0,1,2.844,4.14A12.594,12.594,0,0,1,45.8,26.148V26.7h0v.62H22.487a9.3,9.3,0,0,0,1.107,3.608,9.939,9.939,0,0,0,2.214,2.724A9.763,9.763,0,0,0,28.819,35.4a9.519,9.519,0,0,0,3.431.62,9.9,9.9,0,0,0,2.59-.311,9.188,9.188,0,0,0,2.214-.953,8.723,8.723,0,0,0,1.9-1.461,9.165,9.165,0,0,0,1.438-1.9h4.073a12.952,12.952,0,0,1-4.65,5.558,14.9,14.9,0,0,1-3.543,1.66,13.97,13.97,0,0,1-4.14.6A13.594,13.594,0,0,1,22.55,35.4a12.863,12.863,0,0,1-3.742-9.255ZM32.273,16.2a9.807,9.807,0,0,0-3.565.642,10.007,10.007,0,0,0-2.844,1.794,9.763,9.763,0,0,0-2.214,2.641,9.917,9.917,0,0,0-1.107,3.344h19.3A9.954,9.954,0,0,0,40.733,21.3a9.785,9.785,0,0,0-2.08-2.641,9.141,9.141,0,0,0-2.9-1.749,9.631,9.631,0,0,0-3.5-.642Z" transform="translate(22.83 15.912)"/><path class="c" d="M66.348,20.26a12.885,12.885,0,0,0-4.987-5.513,13.793,13.793,0,0,0-3.453-1.528,13.947,13.947,0,0,0-3.86-.532,13.572,13.572,0,0,0-5.379,1.062,14.368,14.368,0,0,0-4.428,2.945,14.169,14.169,0,0,0-2.966,4.428,14.48,14.48,0,0,0,0,10.892,13.8,13.8,0,0,0,12.773,8.412,13.726,13.726,0,0,0,3.809-.51,13.881,13.881,0,0,0,3.476-1.505,12.885,12.885,0,0,0,4.981-5.535h3.963A14.923,14.923,0,0,1,67.7,37.484a18.079,18.079,0,0,1-13.639,6.3,17.4,17.4,0,0,1-4.684-.63,18.021,18.021,0,0,1-4.207-1.7,18.463,18.463,0,0,1-3.587-2.679,16.671,16.671,0,0,1-2.744-3.476,17.933,17.933,0,0,1-1.771-4.118,16.493,16.493,0,0,1-.642-4.583,16.759,16.759,0,0,1,.642-4.605,17.135,17.135,0,0,1,1.771-4.118,16.117,16.117,0,0,1,2.744-3.476,18.463,18.463,0,0,1,3.587-2.679,17.157,17.157,0,0,1,4.207-1.727,18.309,18.309,0,0,1,4.695-.6,18,18,0,0,1,5.078.731,17.711,17.711,0,0,1,4.695,2.214,16.692,16.692,0,0,1,3.874,3.409,14.9,14.9,0,0,1,2.59,4.65Z" transform="translate(44.215 11.399)"/><path class="c" d="M53,26.174a12.686,12.686,0,0,1,1.016-5.093,12.952,12.952,0,0,1,2.811-4.14,13.283,13.283,0,0,1,4.252-2.789A13.88,13.88,0,0,1,76,16.942a13.094,13.094,0,0,1-.067,18.486,13.283,13.283,0,0,1-4.266,2.767,14.435,14.435,0,0,1-10.648,0,13.283,13.283,0,0,1-4.252-2.724A12.464,12.464,0,0,1,53,26.174Zm3.719,0a9.785,9.785,0,0,0,.709,3.963A9.344,9.344,0,0,0,59.5,33.221a9.454,9.454,0,0,0,3.078,2.031,10.183,10.183,0,0,0,7.571,0,9.387,9.387,0,0,0,5.135-5.115,10.141,10.141,0,0,0,0-7.77,9.387,9.387,0,0,0-5.135-5.048,9.643,9.643,0,0,0-13.492,8.855Z" transform="translate(64.334 15.889)"/><path class="c" d="M66.16,30.932a13.46,13.46,0,0,1,.975-5.093,12.708,12.708,0,0,1,2.724-4.14,12.974,12.974,0,0,1,4.162-2.789A13.283,13.283,0,0,1,79.3,17.895a12.594,12.594,0,0,1,3.078.353,13,13,0,0,1,2.744,1,12.685,12.685,0,0,1,2.214,1.505,15.076,15.076,0,0,1,1.859,1.9V9.17h3.7V43.358H89.761l-.288-4.428a11.89,11.89,0,0,1-1.828,1.993,11.688,11.688,0,0,1-2.369,1.595A12.188,12.188,0,0,1,82.509,43.6a13.523,13.523,0,0,1-12.574-3.431,12.8,12.8,0,0,1-2.767-4.162,12.972,12.972,0,0,1-1-5.078Zm3.742,0a9.785,9.785,0,0,0,.774,3.9,9.344,9.344,0,0,0,2.08,3.078,9.785,9.785,0,0,0,3.1,2.031,9.586,9.586,0,0,0,3.809.754,9.852,9.852,0,0,0,6.929-2.767,10.029,10.029,0,0,0,2.08-10.87,9.387,9.387,0,0,0-2.214-3.078,9.785,9.785,0,0,0-2.946-1.9,9.586,9.586,0,0,0-3.809-.754A9.791,9.791,0,0,0,69.9,30.932Z" transform="translate(80.312 11.132)"/><path class="a" d="M80.7,26.149a13.062,13.062,0,0,1,1.016-5.093,13.283,13.283,0,0,1,2.844-4.14,13.726,13.726,0,0,1,4.266-2.789,13.527,13.527,0,0,1,5.314-1.016,13.793,13.793,0,0,1,5.336,1.016,13.283,13.283,0,0,1,4.252,2.789,12.885,12.885,0,0,1,2.844,4.14,12.594,12.594,0,0,1,1.016,5.093V26.7h0v.62H84.375a9.3,9.3,0,0,0,1.107,3.608A9.939,9.939,0,0,0,87.7,33.651,9.763,9.763,0,0,0,90.707,35.4a9.608,9.608,0,0,0,3.431.62,9.9,9.9,0,0,0,2.724-.244,8.854,8.854,0,0,0,2.214-.953,8.723,8.723,0,0,0,1.9-1.461,9.167,9.167,0,0,0,1.438-1.9H106.5a12.928,12.928,0,0,1-1.881,3.047,12.487,12.487,0,0,1-2.767,2.5,14.9,14.9,0,0,1-3.543,1.66,13.97,13.97,0,0,1-4.14.6,13.527,13.527,0,0,1-5.314-1.016,13.726,13.726,0,0,1-4.266-2.789A12.863,12.863,0,0,1,80.7,26.149ZM94.16,16.2a9.807,9.807,0,0,0-3.565.642,9.631,9.631,0,0,0-2.923,1.727A9.432,9.432,0,0,0,85.458,21.2a9.92,9.92,0,0,0-1.107,3.344h19.3a9.953,9.953,0,0,0-1.107-3.321,9.364,9.364,0,0,0-2.08-2.641,9.141,9.141,0,0,0-2.907-1.757,9.631,9.631,0,0,0-3.409-.575Z" transform="translate(97.963 15.915)"/><path class="a" d="M93.89,30.932a13.039,13.039,0,0,1,.975-5.093,12.6,12.6,0,0,1,6.884-6.929,13.283,13.283,0,0,1,5.269-1.016,12.8,12.8,0,0,1,3.1.353,13.285,13.285,0,0,1,2.724,1,12.221,12.221,0,0,1,4.185,3.409V9.17H120.7V43.358h-3.25l-.288-4.428a12.042,12.042,0,0,1-1.859,1.993,11.534,11.534,0,0,1-2.346,1.595A12.82,12.82,0,0,1,110.17,43.6,13.283,13.283,0,0,1,97.6,40.171a12.731,12.731,0,0,1-2.744-4.162A12.972,12.972,0,0,1,93.9,30.93Zm3.742,0a9.583,9.583,0,0,0,9.759,9.761,9.954,9.954,0,0,0,3.809-.731,9.785,9.785,0,0,0,3.1-15.985,9.653,9.653,0,0,0-3.122-1.9,9.476,9.476,0,0,0-3.786-.754A9.608,9.608,0,0,0,98.38,27.19a9.751,9.751,0,0,0-.754,3.742Z" transform="translate(113.974 11.132)"/><path class="c" d="M127.639,26.071H110.415c-.841,0-1.505-.93-1.505-2.08s.664-2.08,1.505-2.08h17.224c.841,0,1.505.93,1.505,2.08S128.48,26.071,127.639,26.071Z" transform="translate(132.208 26.598)"/></svg>